<svg width="1569" height="278" viewBox="0 0 1569 278" fill="none" xmlns="http://www.w3.org/2000/svg">
<path d="M181.53 208.974H182C183.286 208.971 184.519 208.461 185.43 207.554L199.43 193.554C199.881 193.104 200.238 192.569 200.482 191.98C200.726 191.392 200.851 190.761 200.851 190.124C200.851 189.487 200.726 188.856 200.482 188.268C200.238 187.679 199.881 187.145 199.43 186.694L167.26 154.534L202.59 119.194C203.171 118.789 203.657 118.262 204.012 117.648C204.367 117.035 204.583 116.352 204.645 115.646C204.707 114.94 204.614 114.23 204.371 113.564C204.128 112.898 203.742 112.294 203.24 111.794L197.08 105.624C196.152 104.749 194.925 104.262 193.65 104.262C192.375 104.262 191.148 104.749 190.22 105.624L154.29 141.554L151.87 139.134L151.57 138.864C151.46 138.784 140.48 130.414 139.8 120.764C139.51 116.704 141.09 113.004 144.62 109.474L183.87 70.2341C187.27 66.8441 188.31 61.8941 186.81 56.2941C183.87 45.3841 172.04 33.9841 160.46 30.8841C152.32 28.6941 144.72 30.6041 139.07 36.2641L122.35 52.9741C118.75 56.5741 117.09 62.9741 117.41 71.8741C117.458 73.0645 117.849 74.2155 118.538 75.1877C119.226 76.16 120.182 76.9118 121.289 77.352C122.396 77.7922 123.607 77.9021 124.775 77.6682C125.943 77.4343 127.018 76.8667 127.87 76.0341L140.46 63.4841C143.525 65.7854 147.238 67.0625 151.07 67.1341C155.19 67.1341 158.18 64.5941 160.36 62.7441C160.99 62.1723 161.658 61.6444 162.36 61.1641C162.553 61.351 162.724 61.559 162.87 61.7841C162.82 62.0541 162.42 62.7041 160.81 64.3141L116.92 108.204C112.04 113.084 101.23 130.124 115.06 143.954L140.14 169.034V245.434C140.183 246.167 140.505 246.856 141.04 247.36C141.574 247.864 142.281 248.144 143.015 248.144C143.75 248.144 144.456 247.864 144.991 247.36C145.525 246.856 145.847 246.167 145.89 245.434V174.784L151.72 180.624C151.499 181.036 151.382 181.496 151.38 181.964V245.404C151.423 246.137 151.745 246.826 152.28 247.33C152.814 247.834 153.521 248.114 154.255 248.114C154.99 248.114 155.696 247.834 156.231 247.33C156.765 246.826 157.087 246.137 157.13 245.404V186.024L178.02 206.924C178.423 207.498 178.946 207.978 179.552 208.332C180.157 208.686 180.832 208.905 181.53 208.974ZM145.05 165.784L119.12 139.864C106.6 127.334 120.84 112.384 120.99 112.234L164.87 68.3841C166.402 67.0579 167.595 65.3848 168.35 63.5041C169.06 61.2241 168.35 59.0241 166.35 56.9841C165.886 56.4673 165.321 56.0508 164.69 55.7602C164.059 55.4696 163.375 55.311 162.68 55.2941C160.26 55.2941 158.05 57.1741 156.68 58.3641C154.93 59.8441 153.12 61.3641 151.11 61.3641C147.854 61.2159 144.765 59.878 142.43 57.6041L140.43 55.4341L123.87 71.9641C123.821 72.0252 123.753 72.0674 123.676 72.0838C123.6 72.1002 123.52 72.0897 123.45 72.0541C123.368 72.0278 123.298 71.9754 123.249 71.9049C123.2 71.8344 123.176 71.7498 123.18 71.6641C122.93 64.5941 124.08 59.3941 126.44 57.0441L143.15 40.3241C153.15 30.3241 166.8 38.6741 173.3 45.1741C176.825 48.5501 179.498 52.7142 181.1 57.3241C181.88 59.9741 182.29 63.6541 179.78 66.1641L140.53 105.414C135.82 110.134 133.63 115.414 134.04 121.194C134.88 132.844 146.3 142.074 147.92 143.334L154.3 149.704L158.36 145.644L164.64 139.364L164.83 139.184L193.66 110.354L198.5 115.194L168.5 145.194L159.8 153.904L159.13 154.574L194.73 190.164L182.05 202.784L145.05 165.784Z" fill="url(#paint0_linear)"/>
<path d="M216.61 55.3037H195.61C194.847 55.3037 194.114 55.6071 193.574 56.1472C193.034 56.6873 192.73 57.4199 192.73 58.1837C192.73 58.9475 193.034 59.6801 193.574 60.2202C194.114 60.7603 194.847 61.0637 195.61 61.0637H216.61C220.422 61.0664 224.076 62.5809 226.772 65.2749C229.468 67.9689 230.985 71.6224 230.99 75.4337V202.924C230.985 206.736 229.468 210.39 226.773 213.086C224.077 215.782 220.423 217.298 216.61 217.304H166.1C165.709 217.281 165.316 217.338 164.947 217.472C164.578 217.606 164.241 217.814 163.955 218.083C163.67 218.352 163.442 218.677 163.287 219.037C163.131 219.398 163.051 219.786 163.051 220.179C163.051 220.571 163.131 220.96 163.287 221.32C163.442 221.68 163.67 222.005 163.955 222.274C164.241 222.544 164.578 222.752 164.947 222.886C165.316 223.02 165.709 223.077 166.1 223.054H216.61C221.948 223.048 227.065 220.926 230.839 217.152C234.613 213.378 236.735 208.261 236.74 202.924V75.4337C236.735 70.0965 234.613 64.9795 230.839 61.2055C227.065 57.4315 221.948 55.309 216.61 55.3037V55.3037Z" fill="url(#paint1_linear)"/>
<path d="M131.87 217.304H89.13C85.3178 217.298 81.6633 215.782 78.9676 213.086C76.272 210.39 74.7553 206.736 74.75 202.924V75.4337C74.7553 71.6224 76.2723 67.9689 78.9683 65.2749C81.6642 62.5809 85.3187 61.0664 89.13 61.0637H109.69C110.454 61.0637 111.186 60.7603 111.726 60.2202C112.267 59.6801 112.57 58.9475 112.57 58.1837C112.57 57.4199 112.267 56.6873 111.726 56.1472C111.186 55.6071 110.454 55.3037 109.69 55.3037H89.13C83.7928 55.309 78.6757 57.4315 74.9018 61.2055C71.1278 64.9795 69.0053 70.0965 69 75.4337V202.924C69.0053 208.261 71.1278 213.378 74.9018 217.152C78.6757 220.926 83.7928 223.048 89.13 223.054H131.87C132.262 223.077 132.654 223.02 133.023 222.886C133.392 222.752 133.73 222.544 134.015 222.274C134.301 222.005 134.528 221.68 134.684 221.32C134.839 220.96 134.92 220.571 134.92 220.179C134.92 219.786 134.839 219.398 134.684 219.037C134.528 218.677 134.301 218.352 134.015 218.083C133.73 217.814 133.392 217.606 133.023 217.472C132.654 217.338 132.262 217.281 131.87 217.304V217.304Z" fill="url(#paint2_linear)"/>
<g opacity="0.65">
<path opacity="0.65" d="M159.101 142.854L193.641 108.314L200.511 115.194L172.871 142.854H176.871L201.621 118.114L201.721 118.044C202.124 117.759 202.461 117.391 202.709 116.965C202.958 116.539 203.112 116.064 203.161 115.574C203.208 115.071 203.142 114.565 202.969 114.091C202.796 113.617 202.52 113.188 202.161 112.834L195.991 106.664C195.335 106.052 194.472 105.712 193.576 105.712C192.679 105.712 191.816 106.052 191.161 106.664L154.971 142.854H159.101Z" fill="url(#paint3_linear)"/>
<path opacity="0.65" d="M120.06 142.854L118.11 140.904C104.59 127.394 119.81 111.414 119.97 111.254L163.87 67.3637C165.229 66.193 166.3 64.7251 167 63.0737C167.54 61.3237 167 59.6637 165.33 57.9937C164.992 57.6225 164.582 57.3238 164.125 57.1158C163.667 56.9078 163.173 56.7948 162.67 56.7837C160.78 56.7837 158.84 58.4237 157.57 59.5037C155.71 61.0837 153.57 62.8737 151.07 62.8737C145.51 62.8737 141.53 58.8737 141.34 58.6537L140.34 57.5737L124.87 72.9837C124.706 73.1547 124.509 73.2906 124.291 73.3834C124.072 73.4762 123.838 73.5239 123.6 73.5237C123.364 73.5244 123.13 73.4803 122.91 73.3937C122.568 73.265 122.272 73.0357 122.061 72.736C121.85 72.4363 121.735 72.08 121.73 71.7137C121.54 66.4237 122.03 59.4037 125.41 56.0237L142.12 39.3137C143.649 37.7111 145.488 36.4368 147.525 35.5685C149.563 34.7003 151.756 34.2563 153.97 34.2637C161.67 34.2637 169.52 39.3737 174.31 44.1637C178.25 48.1037 181.23 52.7537 182.46 56.9137C183.75 61.2437 183.17 64.7937 180.78 67.1837L141.54 106.434C137.13 110.834 135.09 115.774 135.47 121.094C136.26 132.194 147.47 141.204 148.79 142.194L148.86 142.254L149.47 142.854H153.54L150.87 140.214L150.64 140.014C150.16 139.654 139.02 131.094 138.3 120.864C137.99 116.364 139.7 112.304 143.54 108.464L182.79 69.2137C185.79 66.2137 186.71 61.7437 185.35 56.6637C182.55 46.1937 171.2 35.2537 160.07 32.2737C158.09 31.7256 156.045 31.4431 153.99 31.4337C151.396 31.4234 148.825 31.9351 146.432 32.9384C144.039 33.9417 141.872 35.416 140.06 37.2737L123.37 53.9937C120.06 57.2937 118.54 63.2937 118.85 71.8237C118.875 72.7491 119.173 73.6465 119.707 74.4028C120.241 75.1591 120.987 75.7405 121.85 76.0737C122.408 76.2908 123.002 76.4027 123.6 76.4037C124.215 76.4022 124.823 76.2785 125.39 76.0399C125.956 75.8013 126.47 75.4525 126.9 75.0137L140.31 61.6037L141.31 62.3237C144.133 64.4445 147.551 65.6236 151.08 65.6937C154.67 65.6937 157.31 63.4537 159.45 61.6337C160.153 61.0046 160.901 60.4296 161.69 59.9137L162.69 59.3637L163.62 60.3637H164.62L164.3 62.0737C164.18 62.6937 163.73 63.4637 161.84 65.3537L117.95 109.234C114.308 113.14 111.705 117.899 110.38 123.074C108.57 130.624 110.46 137.284 116.01 142.874L120.06 142.854Z" fill="url(#paint4_linear)"/>
<path opacity="0.65" d="M195.581 59.6242H216.581C220.774 59.6268 224.795 61.2931 227.761 64.2571C230.727 67.2212 232.396 71.241 232.401 75.4342V142.854H235.271V75.4342C235.255 70.491 233.284 65.755 229.787 62.2606C226.291 58.7662 221.554 56.7974 216.611 56.7842H195.611C195.229 56.7842 194.863 56.9359 194.593 57.2059C194.323 57.476 194.171 57.8423 194.171 58.2242C194.171 58.6061 194.323 58.9724 194.593 59.2424C194.863 59.5125 195.229 59.6642 195.611 59.6642L195.581 59.6242Z" fill="url(#paint5_linear)"/>
<path opacity="0.65" d="M73.3104 142.854V75.4341C73.3157 71.241 74.9845 67.2212 77.9505 64.2571C80.9164 61.293 84.9372 59.6268 89.1304 59.6241H109.69C110.072 59.6241 110.439 59.4724 110.709 59.2024C110.979 58.9323 111.13 58.5661 111.13 58.1841C111.13 57.8022 110.979 57.436 110.709 57.1659C110.439 56.8959 110.072 56.7441 109.69 56.7441H89.1304C84.1751 56.7494 79.4243 58.7203 75.9204 62.2242C72.4165 65.7281 70.4457 70.4789 70.4404 75.4341V142.854H73.3104Z" fill="url(#paint6_linear)"/>
</g>
<path d="M336.74 219.205V113.936C336.74 94.9877 341.432 80.9209 350.814 71.7353C360.197 62.5497 374.545 57.9358 393.858 57.8936H416.921V77.8543H390.145C379.848 77.8543 371.914 80.6677 366.344 86.2944C360.773 91.9211 357.96 100.059 357.904 110.707V128.727H416.921V148.624H358.009V219.289L336.74 219.205Z" fill="white"/>
<path d="M465.853 219.205V57.8936H487.375V219.31L465.853 219.205Z" fill="white"/>
<path d="M539.092 57.8936H560.509V166.349C560.509 176.941 563.287 185.093 568.843 190.804C574.4 196.515 582.334 199.37 592.644 199.37H621.932V219.205H596.274C577.03 219.205 562.675 214.541 553.208 205.215C543.741 195.889 539.008 181.766 539.008 162.846L539.092 57.8936Z" fill="white"/>
<path d="M649.635 219.205L670.123 75.3858C670.613 70.0216 672.602 64.9033 675.862 60.6156C677.265 58.9896 679.016 57.6997 680.984 56.8414C682.953 55.9831 685.089 55.5784 687.235 55.6571C689.178 55.6152 691.11 55.957 692.92 56.6631C694.731 57.3691 696.384 58.4255 697.785 59.7717C701.06 63.108 703.397 67.2493 704.559 71.7776L740.619 186.753L776.363 71.7776C777.577 67.2521 779.939 63.1167 783.22 59.7717C784.622 58.4255 786.275 57.3691 788.085 56.6631C789.896 55.957 791.827 55.6152 793.77 55.6571C795.919 55.5797 798.058 55.985 800.03 56.8431C802.002 57.7012 803.756 58.9903 805.164 60.6156C808.425 64.9033 810.414 70.0216 810.904 75.3858L831.413 219.205H810.904L792.42 86.2735L755.368 204.667C754.158 209.191 752.049 213.426 749.164 217.116C748.11 218.353 746.795 219.342 745.314 220.013C743.834 220.684 742.223 221.021 740.598 220.998C738.961 221.041 737.334 220.731 735.826 220.09C734.319 219.45 732.968 218.493 731.862 217.285C728.902 213.546 726.747 209.236 725.532 204.624L688.565 86.1469L670.292 219.078L649.635 219.205Z" fill="white"/>
<path d="M874.943 219.205V57.8936H896.466V219.31L874.943 219.205Z" fill="white"/>
<path d="M970.041 219.202H949.742V79.54C949.742 71.9721 951.268 66.1554 954.321 62.0901C955.824 60.0834 957.798 58.4775 960.068 57.4141C962.339 56.3506 964.836 55.8623 967.34 55.9922C971.32 55.9767 975.172 57.4005 978.185 60.0012C981.945 63.4024 984.956 67.5485 987.026 72.176L1045.09 192.932V57.8912H1065.62V198.123C1065.62 205.487 1064.11 211.226 1061.11 215.362C1059.71 217.358 1057.83 218.97 1055.64 220.054C1053.46 221.137 1051.03 221.657 1048.6 221.565C1044.47 221.597 1040.46 220.178 1037.27 217.556C1033.44 214.239 1030.42 210.098 1028.42 205.445L970.041 83.8234V219.202Z" fill="white"/>
<path d="M1196.91 127.123H1274.35V132.63C1274.41 140.836 1273.61 149.025 1271.96 157.064C1270.47 164.246 1268.09 171.214 1264.87 177.806C1258.19 191.203 1247.9 202.471 1235.17 210.342C1224.18 216.932 1211.81 220.848 1199.03 221.775C1186.26 222.702 1173.45 220.615 1161.63 215.68C1151.66 211.44 1142.65 205.232 1135.13 197.429C1127.39 189.668 1121.27 180.452 1117.11 170.312C1112.95 160.171 1110.84 149.308 1110.91 138.348C1110.87 127.403 1112.97 116.557 1117.11 106.424C1121.26 96.2864 1127.38 87.0765 1135.13 79.3311C1142.76 71.5152 1151.94 65.3717 1162.07 61.2904C1172.58 57.1005 1183.79 54.9936 1195.1 55.087C1206.73 54.9967 1218.25 57.4224 1228.86 62.1977C1240.23 67.59 1250.51 75.0367 1259.18 84.163L1244.85 98.7221C1237.85 91.285 1229.59 85.1358 1220.46 80.5548C1212.32 76.7023 1203.42 74.7265 1194.42 74.7734C1188.58 74.7346 1182.76 75.4942 1177.12 77.0311C1171.78 78.4829 1166.71 80.7611 1162.07 83.7832C1152.97 89.5032 1145.51 97.5043 1140.45 106.993C1133.92 119.178 1131.39 133.104 1133.21 146.806C1135.02 160.508 1141.1 173.293 1150.58 183.355C1156.03 189.14 1162.61 193.756 1169.9 196.922C1177.13 200.106 1184.94 201.744 1192.84 201.733C1207.36 202.094 1221.44 196.798 1232.13 186.963C1242.83 177.116 1249.27 163.964 1251.46 147.506H1196.91V127.123Z" fill="white"/>
<path d="M1312.41 138.391C1312.35 127.437 1314.44 116.577 1318.55 106.425C1322.73 96.2856 1328.87 87.0765 1336.64 79.3321C1344.13 71.6111 1353.1 65.4835 1363.02 61.3173C1372.93 57.1511 1383.59 55.0323 1394.35 55.088C1405.04 55.0711 1415.63 57.2246 1425.47 61.418C1440.56 67.8293 1453.42 78.5592 1462.43 92.2587C1471.44 105.958 1476.2 122.016 1476.11 138.413C1476.16 149.404 1474.06 160.3 1469.93 170.485C1465.8 180.558 1459.74 189.726 1452.1 197.472C1444.54 205.264 1435.5 211.469 1425.51 215.724C1415.63 219.867 1405.03 222 1394.31 222C1383.6 222 1373 219.867 1363.12 215.724C1353.21 211.526 1344.23 205.417 1336.68 197.746C1328.91 189.946 1322.76 180.677 1318.6 170.48C1314.44 160.283 1312.35 149.361 1312.46 138.349L1312.41 138.391ZM1334.27 138.159C1334.21 146.551 1335.76 154.876 1338.85 162.678C1341.9 170.321 1346.39 177.306 1352.08 183.251C1357.61 189.044 1364.24 193.678 1371.58 196.881C1378.76 200.022 1386.51 201.639 1394.35 201.629C1402.17 201.66 1409.91 200.043 1417.07 196.881C1424.32 193.666 1430.85 189.031 1436.27 183.251C1444.79 174.141 1450.55 162.811 1452.91 150.566C1455.27 138.322 1454.11 125.66 1449.59 114.042C1446.52 106.371 1442 99.3638 1436.27 93.4059C1430.87 87.5682 1424.34 82.8941 1417.07 79.6697C1409.91 76.5081 1402.17 74.8905 1394.35 74.9222C1386.48 74.9023 1378.7 76.4966 1371.47 79.6064C1364.15 82.7602 1357.55 87.3853 1352.08 93.1949C1346.35 99.1619 1341.84 106.185 1338.79 113.873C1335.78 121.585 1334.24 129.796 1334.27 138.075V138.159Z" fill="white"/>
<path d="M416.921 134.023V128.685H358.009V110.644C358.009 100.038 360.822 91.9 366.449 86.2311C372.076 80.5622 380.009 77.7488 390.25 77.791H416.921V57.8936H393.858C374.615 57.8936 360.295 62.5145 350.898 71.7564C341.501 80.9983 336.81 95.0651 336.824 113.957V134.044L416.921 134.023Z" fill="white"/>
<path d="M487.375 57.7881H465.853V134.023H487.375V57.7881Z" fill="white"/>
<path d="M560.508 57.7881H539.092V134.023H560.508V57.7881Z" fill="white"/>
<path d="M777.419 134.023L792.337 86.1888L798.983 134.023H819.176L810.736 75.3855C810.246 70.0213 808.257 64.903 804.997 60.6153C803.589 58.99 801.834 57.7009 799.862 56.8428C797.891 55.9847 795.752 55.5794 793.603 55.6568C791.66 55.6149 789.728 55.9567 787.918 56.6628C786.107 57.3688 784.454 58.4252 783.053 59.7713C779.771 63.1164 777.409 67.2517 776.195 71.7773L756.867 133.917L777.419 134.023Z" fill="white"/>
<path d="M682.067 134.023L688.65 86.1889L703.568 134.023H724.035L704.538 71.8829C703.376 67.3547 701.04 63.2132 697.765 59.8769C696.364 58.5308 694.71 57.4745 692.9 56.7684C691.09 56.0624 689.158 55.7205 687.215 55.7623C685.065 55.6804 682.925 56.0836 680.952 56.942C678.98 57.8004 677.226 59.092 675.821 60.7209C672.56 65.0086 670.572 70.1268 670.082 75.491L661.642 134.128L682.067 134.023Z" fill="white"/>
<path d="M896.466 57.7881H874.943V134.023H896.466V57.7881Z" fill="white"/>
<path d="M1065.6 57.7881H1045.09V134.023H1065.6V57.7881Z" fill="white"/>
<path d="M970.04 134.022V83.7187L994.179 134.022H1016.73L986.941 72.1136C984.888 67.5163 981.907 63.3929 978.185 60.0021C975.185 57.4432 971.367 56.0435 967.424 56.0564C964.922 55.9277 962.428 56.4144 960.158 57.4738C957.888 58.5333 955.913 60.1331 954.405 62.1332C951.338 66.1985 949.812 72.0222 949.826 79.6042V134.085L970.04 134.022Z" fill="white"/>
<path d="M1196.91 134.022H1274.31C1274.31 133.558 1274.31 133.115 1274.31 132.629V127.122H1196.91V134.022Z" fill="white"/>
<path d="M1133.02 134.023C1133.45 124.538 1135.98 115.268 1140.45 106.888C1145.51 97.3992 1152.97 89.3982 1162.07 83.6781C1166.71 80.656 1171.78 78.3777 1177.12 76.926C1182.76 75.3891 1188.58 74.6296 1194.42 74.6684C1203.45 74.6318 1212.37 76.6294 1220.52 80.5131C1229.65 85.0941 1237.91 91.2432 1244.91 98.6803L1259.24 84.1212C1250.58 74.9798 1240.3 67.5187 1228.92 62.1137C1218.31 57.3384 1206.79 54.9128 1195.16 55.003C1183.85 54.9097 1172.64 57.0166 1162.14 61.2064C1152 65.2878 1142.83 71.4312 1135.19 79.2471C1120.55 93.8178 1111.95 113.382 1111.12 134.023H1133.02Z" fill="white"/>
<path d="M1334.46 134.022C1334.79 127.124 1336.22 120.323 1338.68 113.872C1341.73 106.183 1346.25 99.1605 1351.97 93.1936C1357.44 87.384 1364.04 82.7589 1371.37 79.6051C1378.59 76.4953 1386.37 74.901 1394.24 74.9208C1402.1 74.8743 1409.88 76.4923 1417.07 79.6684C1424.34 82.8928 1430.87 87.5669 1436.27 93.4045C1446.88 104.357 1453.15 118.792 1453.91 134.022H1475.88C1475.15 118.407 1470.04 103.311 1461.14 90.4658C1452.23 77.6204 1439.88 67.5453 1425.51 61.3956C1415.67 57.2021 1405.08 55.0487 1394.39 55.0655C1383.63 55.0098 1372.97 57.1287 1363.06 61.2949C1353.14 65.4611 1344.17 71.5887 1336.68 79.3096C1322.01 93.8244 1313.42 113.381 1312.67 134.001L1334.46 134.022Z" fill="white"/>
<defs>
<linearGradient id="paint0_linear" x1="156.46" y1="206.804" x2="156.46" y2="146.614" gradientUnits="userSpaceOnUse">
<stop stop-color="#F38EBB"/>
<stop offset="1" stop-color="#F16687"/>
</linearGradient>
<linearGradient id="paint1_linear" x1="25741.5" y1="35287.2" x2="25741.5" y2="25190" gradientUnits="userSpaceOnUse">
<stop stop-color="#F38EBB"/>
<stop offset="1" stop-color="#F16687"/>
</linearGradient>
<linearGradient id="paint2_linear" x1="16484.3" y1="35287.2" x2="16484.3" y2="25190" gradientUnits="userSpaceOnUse">
<stop stop-color="#F38EBB"/>
<stop offset="1" stop-color="#F16687"/>
</linearGradient>
<linearGradient id="paint3_linear" x1="179.121" y1="176.964" x2="179.121" y2="66.7036" gradientUnits="userSpaceOnUse">
<stop stop-color="white"/>
<stop offset="1" stop-color="#F16687"/>
</linearGradient>
<linearGradient id="paint4_linear" x1="22601.5" y1="20110.7" x2="22601.5" y2="7823.33" gradientUnits="userSpaceOnUse">
<stop stop-color="white"/>
<stop offset="1" stop-color="#F16687"/>
</linearGradient>
<linearGradient id="paint5_linear" x1="15066.6" y1="15564.9" x2="15066.6" y2="6074.8" gradientUnits="userSpaceOnUse">
<stop stop-color="white"/>
<stop offset="1" stop-color="#F16687"/>
</linearGradient>
<linearGradient id="paint6_linear" x1="9751" y1="15572" x2="9751" y2="6077.56" gradientUnits="userSpaceOnUse">
<stop stop-color="white"/>
<stop offset="1" stop-color="#F16687"/>
</linearGradient>
</defs>
</svg>
