<?xml version="1.0" encoding="UTF-8"?>
<svg width="217px" height="29px" viewBox="0 0 217 29" version="1.1" xmlns="http://www.w3.org/2000/svg" xmlns:xlink="http://www.w3.org/1999/xlink">
    <!-- Generator: Sketch 51.3 (57544) - http://www.bohemiancoding.com/sketch -->
    <title>logo</title>
    <desc>Created with Sketch.</desc>
    <defs></defs>
    <g id="Page-1" stroke="none" stroke-width="1" fill="none" fill-rule="evenodd">
        <g id="logo">
            <path d="M22.707,0.716 L22.707,28 L18.66,28 L18.66,15.707 L4.429,15.707 L4.429,28 L0.363,28 L0.363,0.716 L4.429,0.716 L4.429,12.762 L18.66,12.762 L18.66,0.716 L22.707,0.716 Z M40.092,24.751 C41.1813388,24.751 42.1566624,24.5673352 43.018,24.2 C43.8793376,23.8326648 44.6076637,23.3165033 45.203,22.6515 C45.7983363,21.9864967 46.2543317,21.1948379 46.571,20.2765 C46.8876683,19.3581621 47.046,18.3416722 47.046,17.227 L47.046,0.716 L51.074,0.716 L51.074,17.227 C51.074,18.823008 50.8206692,20.2986599 50.314,21.654 C49.8073308,23.0093401 49.0790047,24.1809951 48.129,25.169 C47.1789952,26.1570049 46.0263401,26.9296639 44.671,27.487 C43.3156599,28.0443361 41.7893418,28.323 40.092,28.323 C38.3946582,28.323 36.8683401,28.0443361 35.513,27.487 C34.1576599,26.9296639 33.0050047,26.1570049 32.055,25.169 C31.1049953,24.1809951 30.3766692,23.0093401 29.87,21.654 C29.3633308,20.2986599 29.11,18.823008 29.11,17.227 L29.11,0.716 L33.157,0.716 L33.157,17.208 C33.157,18.3226722 33.3121651,19.3423287 33.6225,20.267 C33.9328349,21.1916713 34.3856637,21.9864967 34.981,22.6515 C35.5763363,23.3165033 36.3046624,23.8326648 37.166,24.2 C38.0273376,24.5673352 39.0026612,24.751 40.092,24.751 Z M79.745,14.719 L79.745,25.359 C78.3643264,26.3470049 76.8950078,27.0848309 75.337,27.5725 C73.7789922,28.0601691 72.0816759,28.304 70.245,28.304 C68.040989,28.304 66.0491756,27.9620034 64.2695,27.278 C62.4898244,26.5939966 60.9730063,25.6376728 59.719,24.409 C58.4649937,23.1803272 57.4991701,21.7110086 56.8215,20.001 C56.1438299,18.2909915 55.805,16.4100103 55.805,14.358 C55.805,12.293323 56.1311634,10.4028419 56.7835,8.6865 C57.4358366,6.97015809 58.3699939,5.50083944 59.586,4.2785 C60.8020061,3.05616055 62.2744914,2.10617006 64.0035,1.4285 C65.7325086,0.750829945 67.6736559,0.412 69.827,0.412 C70.9163388,0.412 71.9264953,0.49433251 72.8575,0.659 C73.7885047,0.82366749 74.652996,1.05799848 75.451,1.362 C76.249004,1.66600152 76.9868299,2.03016454 77.6645,2.4545 C78.3421701,2.87883546 78.9723304,3.35699734 79.555,3.889 L78.396,5.713 C78.2186658,6.00433479 77.9843348,6.18799962 77.693,6.264 C77.4016652,6.34000038 77.0850017,6.27033441 76.743,6.055 C76.413665,5.86499905 76.049502,5.6433346 75.6505,5.39 C75.251498,5.1366654 74.7765028,4.90233441 74.2255,4.687 C73.6744972,4.47166559 73.0316703,4.28800076 72.297,4.136 C71.5623297,3.98399924 70.6946717,3.908 69.694,3.908 C68.1993259,3.908 66.8503394,4.15183089 65.647,4.6395 C64.4436606,5.12716911 63.4176709,5.82699544 62.569,6.739 C61.7203291,7.65100456 61.0680023,8.7498269 60.612,10.0355 C60.1559977,11.3211731 59.928,12.761992 59.928,14.358 C59.928,16.0300084 60.1686643,17.5278267 60.65,18.8515 C61.1313357,20.1751733 61.8121623,21.2961621 62.6925,22.2145 C63.5728377,23.1328379 64.6431604,23.8326643 65.9035,24.314 C67.1638396,24.7953357 68.5729922,25.036 70.131,25.036 C70.739003,25.036 71.3058307,25.001167 71.8315,24.9315 C72.3571693,24.861833 72.8606643,24.7636673 73.342,24.637 C73.8233357,24.5103327 74.2888311,24.3520009 74.7385,24.162 C75.1881689,23.971999 75.6346645,23.7630011 76.078,23.535 L76.078,17.816 L72.05,17.816 C71.7966654,17.816 71.5908341,17.7400008 71.4325,17.588 C71.2741659,17.4359992 71.195,17.2460011 71.195,17.018 L71.195,14.719 L79.745,14.719 Z M110.62,14.358 C110.62,16.3973435 110.293837,18.2688248 109.6415,19.9725 C108.989163,21.6761752 108.067673,23.1454938 106.877,24.3805 C105.686327,25.6155062 104.261342,26.5749966 102.602,27.259 C100.942658,27.9430034 99.0996768,28.285 97.073,28.285 C95.0589899,28.285 93.219175,27.9430034 91.5535,27.259 C89.887825,26.5749966 88.4628393,25.6155062 87.2785,24.3805 C86.0941607,23.1454938 85.17267,21.6761752 84.514,19.9725 C83.85533,18.2688248 83.526,16.3973435 83.526,14.358 C83.526,12.3313232 83.85533,10.4630086 84.514,8.753 C85.17267,7.04299145 86.0941607,5.57050617 87.2785,4.3355 C88.4628393,3.10049383 89.887825,2.13783678 91.5535,1.4475 C93.219175,0.757163215 95.0589899,0.412 97.073,0.412 C99.0996768,0.412 100.942658,0.757163215 102.602,1.4475 C104.261342,2.13783678 105.686327,3.10049383 106.877,4.3355 C108.067673,5.57050617 108.989163,7.04299145 109.6415,8.753 C110.293837,10.4630086 110.62,12.3313232 110.62,14.358 Z M106.478,14.358 C106.478,12.7366586 106.256336,11.2800065 105.813,9.988 C105.369664,8.69599354 104.739504,7.60033783 103.9225,6.701 C103.105496,5.80166217 102.117506,5.11133574 100.9585,4.63 C99.7994942,4.14866426 98.5043405,3.908 97.073,3.908 C95.6416595,3.908 94.3465058,4.14866426 93.1875,4.63 C92.0284942,5.11133574 91.0373374,5.80166217 90.214,6.701 C89.3906626,7.60033783 88.7573355,8.69599354 88.314,9.988 C87.8706644,11.2800065 87.649,12.7366586 87.649,14.358 C87.649,15.9920082 87.8706644,17.4518269 88.314,18.7375 C88.7573355,20.0231731 89.3906626,21.1156622 90.214,22.015 C91.0373374,22.9143378 92.0284942,23.6014976 93.1875,24.0765 C94.3465058,24.5515024 95.6416595,24.789 97.073,24.789 C98.5043405,24.789 99.7994942,24.5515024 100.9585,24.0765 C102.117506,23.6014976 103.105496,22.9143378 103.9225,22.015 C104.739504,21.1156622 105.369664,20.0231731 105.813,18.7375 C106.256336,17.4518269 106.478,15.9920082 106.478,14.358 Z" id="HUGO" fill="#000000"></path>
            <path d="M138.707,0.716 L138.707,28 L134.66,28 L134.66,15.707 L120.429,15.707 L120.429,28 L116.363,28 L116.363,0.716 L120.429,0.716 L120.429,12.762 L134.66,12.762 L134.66,0.716 L138.707,0.716 Z M162.381,24.713 L162.362,28 L145.452,28 L145.452,0.716 L162.362,0.716 L162.362,4.003 L149.518,4.003 L149.518,12.648 L159.854,12.648 L159.854,15.821 L149.518,15.821 L149.518,24.713 L162.381,24.713 Z M175.111,13.864 C176.149672,13.864 177.064829,13.7373346 177.8565,13.484 C178.648171,13.2306654 179.309997,12.8728356 179.842,12.4105 C180.374003,11.9481644 180.772999,11.3971699 181.039,10.7575 C181.305001,10.1178301 181.438,9.41167053 181.438,8.639 C181.438,7.06832548 180.921838,5.88400399 179.8895,5.086 C178.857162,4.28799601 177.308677,3.889 175.244,3.889 L171.425,3.889 L171.425,13.864 L175.111,13.864 Z M187.841,28 L184.231,28 C183.508996,28 182.983335,27.7150028 182.654,27.145 L175.909,17.683 C175.693666,17.3663318 175.459335,17.1415007 175.206,17.0085 C174.952665,16.8754993 174.572669,16.809 174.066,16.809 L171.425,16.809 L171.425,28 L167.378,28 L167.378,0.716 L175.244,0.716 C177.004675,0.716 178.521494,0.896498195 179.7945,1.2575 C181.067506,1.6185018 182.118829,2.13149667 182.9485,2.7965 C183.778171,3.46150332 184.392498,4.26266198 184.7915,5.2 C185.190502,6.13733802 185.39,7.18866084 185.39,8.354 C185.39,9.30400475 185.244335,10.1969958 184.953,11.033 C184.661665,11.8690042 184.234169,12.6194967 183.6705,13.2845 C183.106831,13.9495033 182.419671,14.5226643 181.609,15.004 C180.798329,15.4853357 179.880005,15.8526654 178.854,16.106 C179.360669,16.4100015 179.797665,16.8343306 180.165,17.379 L187.841,28 Z M216.455,14.358 C216.455,16.3973435 216.128837,18.2688248 215.4765,19.9725 C214.824163,21.6761752 213.902673,23.1454938 212.712,24.3805 C211.521327,25.6155062 210.096342,26.5749966 208.437,27.259 C206.777658,27.9430034 204.934677,28.285 202.908,28.285 C200.89399,28.285 199.054175,27.9430034 197.3885,27.259 C195.722825,26.5749966 194.297839,25.6155062 193.1135,24.3805 C191.929161,23.1454938 191.00767,21.6761752 190.349,19.9725 C189.69033,18.2688248 189.361,16.3973435 189.361,14.358 C189.361,12.3313232 189.69033,10.4630086 190.349,8.753 C191.00767,7.04299145 191.929161,5.57050617 193.1135,4.3355 C194.297839,3.10049383 195.722825,2.13783678 197.3885,1.4475 C199.054175,0.757163215 200.89399,0.412 202.908,0.412 C204.934677,0.412 206.777658,0.757163215 208.437,1.4475 C210.096342,2.13783678 211.521327,3.10049383 212.712,4.3355 C213.902673,5.57050617 214.824163,7.04299145 215.4765,8.753 C216.128837,10.4630086 216.455,12.3313232 216.455,14.358 Z M212.313,14.358 C212.313,12.7366586 212.091336,11.2800065 211.648,9.988 C211.204664,8.69599354 210.574504,7.60033783 209.7575,6.701 C208.940496,5.80166217 207.952506,5.11133574 206.7935,4.63 C205.634494,4.14866426 204.33934,3.908 202.908,3.908 C201.47666,3.908 200.181506,4.14866426 199.0225,4.63 C197.863494,5.11133574 196.872337,5.80166217 196.049,6.701 C195.225663,7.60033783 194.592336,8.69599354 194.149,9.988 C193.705664,11.2800065 193.484,12.7366586 193.484,14.358 C193.484,15.9920082 193.705664,17.4518269 194.149,18.7375 C194.592336,20.0231731 195.225663,21.1156622 196.049,22.015 C196.872337,22.9143378 197.863494,23.6014976 199.0225,24.0765 C200.181506,24.5515024 201.47666,24.789 202.908,24.789 C204.33934,24.789 205.634494,24.5515024 206.7935,24.0765 C207.952506,23.6014976 208.940496,22.9143378 209.7575,22.015 C210.574504,21.1156622 211.204664,20.0231731 211.648,18.7375 C212.091336,17.4518269 212.313,15.9920082 212.313,14.358 Z" id="HERO" fill="#1C3ED3"></path>
        </g>
    </g>
</svg>