<svg xmlns="http://www.w3.org/2000/svg" xmlns:xlink="http://www.w3.org/1999/xlink" width="100" height="100" viewBox="0 0 100 100"><g><circle stroke="none" fill="#1c3ed3" r="48%" cx="50%" cy="50%"></circle><g transform="translate(50 50) scale(0.69 0.69) rotate(0) translate(-50 -50)" style="fill:#ffffff"><svg fill="#ffffff" xmlns="http://www.w3.org/2000/svg" data-name="Layer 2" viewBox="0 0 100 100" x="0px" y="0px"><title>ecology-and-environment</title><path d="M51.23,8.91a1.56,1.56,0,0,0-2.47,0c-1.11,1.6-27.08,39.38-27.08,54.48a28.31,28.31,0,1,0,56.63,0C78.31,48.28,52.34,10.51,51.23,8.91ZM50,88.7A25.34,25.34,0,0,1,24.69,63.39c0-12.39,20.08-43.14,25.31-51,5.24,7.81,25.31,38.56,25.31,51A25.34,25.34,0,0,1,50,88.7Z"></path><path d="M69.35,57.08a468.12,468.12,0,0,1-.13-0.33A1,1,0,0,0,69,56.47h0a1,1,0,0,0-.33-0.15H68.46a1,1,0,0,0-.19,0c-0.51,0-12.67,1.28-17.68,8.13-3.17,4.34-3.43,10.22-3.09,14.35l-2.19-3.61,0.23-5.78a1,1,0,0,0-1-1,1,1,0,0,0-1,1l-0.11,2.77-4-6.59,0.23-5.78A1,1,0,0,0,39.43,59c3.15,1.36,6.53,3.42,8.32,6.37a1,1,0,1,0,1.71-1c-4.41-7.25-16.43-9.5-16.93-9.59a0.93,0.93,0,0,0-.17,0,1,1,0,0,0-.18,0,1,1,0,0,0-.24.09l-0.11,0L31.77,55a1,1,0,0,0-.21.19,1,1,0,0,0-.1.19,1,1,0,0,0-.07.13v0h0c-0.24.86-3.43,12.54,0.74,19.39,2.71,4.45,8.89,7.16,13.6,8.66a1,1,0,0,0,.61-1.91c-3.59-1.14-10-3.66-12.5-7.79-2.74-4.5-1.8-11.78-1.05-15.5L38,66.92l-2.53-1.19a1,1,0,0,0-.85,1.81L39.84,70l4.43,7.29-2.53-1.19a1,1,0,0,0-.85,1.81l5.52,2.59h0.06a1,1,0,0,0,.32.07h0a1,1,0,0,0,.78-0.39l0,0a30.7,30.7,0,0,0,.62,3.54,532.13,532.13,0,0,0,.13.28,1,1,0,0,0,.25.27h0l0.14,0.07,0.13,0.07a1,1,0,0,0,.32.05h0.13c0.53-.07,13-1.73,17.63-8.11C71.8,69.8,69.45,57.6,69.35,57.08Zm-7.41,2.57a39.06,39.06,0,0,1,4.21-1l-3.51,4.81,0.12-2.77A1,1,0,0,0,61.94,59.65Zm-9.73,5.94c2-2.8,5.59-4.56,8.85-5.66a1,1,0,0,0-.3.64l-0.26,5.78L56,72.58l0.12-2.77a1,1,0,0,0-1-1,1,1,0,0,0-1,1L53.83,75.5l-4,5.54C49.25,77.46,48.75,70.33,52.21,65.59Zm-14.55-6-0.11,2.77L34.45,57.3a39.08,39.08,0,0,1,4.11,1.38A1,1,0,0,0,37.66,59.61ZM65.38,75.2c-3,4.11-10.12,6.09-13.87,6.87l1-1.42,5.45-2a1,1,0,0,0-.69-1.88l-2.62,1,5-6.89,5.45-2A1,1,0,0,0,64.46,67l-2.62,1,5.89-8.08C68.16,63.61,68.49,70.94,65.38,75.2Z"></path><path d="M62.78,43.28a1,1,0,1,0,1.77-.93L53.72,21.85a1,1,0,1,0-1.77.93Z"></path></svg></g></g></svg>